<?xml version="1.0" encoding="UTF-8"?>
<!-- Created with Inkscape (http://www.inkscape.org/) -->
<svg width="1440" height="2095" version="1.1" viewBox="0 0 381 554.3" xmlns="http://www.w3.org/2000/svg">
 <g transform="matrix(.26458 0 0 .26458 93.41 323.58)" stroke-width=".32">
  <path d="m232.88 179.69c9e-3 -5.9638 2.4443-11.825 6.3875-15.37 3.4571-3.1082 6.5105-4.2055 11.174-4.0152 2.6303 0.10731 3.3888 0.27212 5.2332 1.1373 2.8034 1.3149 4.9005 3.4423 6.3958 6.4882 1.5711 3.2003 2.1325 5.5219 2.3791 9.8392l0.20552 3.6008 15.102 3e-4 -0.20379-4.0802c-0.25919-5.1895-0.4718-6.571-1.5996-10.393-3.3865-11.477-12.095-19.62-22.984-21.491-10.032-1.7232-19.923 1.5303-27.424 9.0202-3.5915 3.5862-6.6428 8.8201-8.1522 13.984-1.0285 3.5185-1.2478 4.8474-1.4914 9.04l-0.22779 3.92h15.204z"/>
  <path d="m232.88 194.01v-7.52h-15.04v15.04h15.04z"/>
  <path d="m122.64 168.14c-3.5476-0.0102-4.6324 0.11563-7.3613 0.85547-5.7276 1.5528-10.142 4.0651-14.342 8.1641-4.1646 4.0648-7.094 8.998-8.7695 14.764-1.2857 4.4242-1.4738 5.6994-1.502 10.24-0.0362 5.8315 0.49633 29.219 0.67188 29.52 0.07708 0.132 3.436 0.24023 7.4648 0.24023h7.3262l-0.19531-4.9609-0.19336-4.959h31.459v9.9199h15.041v-9.9199h8.3203v-14.701l-8.1602-0.1796-0.23828-5.9199c-0.25807-6.4423-0.8375-9.3814-2.877-14.561-2.8137-7.1454-8.3883-13.149-14.871-16.016-4.0448-1.7888-7.2907-2.4734-11.773-2.4863zm-1.332 14.854c0.42926-7e-3 0.91079 6e-3 1.4883 0.0313 3.7185 0.16504 6.1427 1.1102 8.6367 3.3672 4.1829 3.7853 5.9163 8.9177 5.707 16.891l-0.10156 3.8398-15.543 0.084c-8.549 0.0457-15.641-0.0157-15.76-0.13477-0.34628-0.34628-0.24935-6.8526 0.13281-8.9199 0.50109-2.7107 1.784-5.7749 3.3438-7.9883 2.3374-3.317 4.6931-5.104 8.4707-6.4238 1.521-0.5314 2.3372-0.72565 3.625-0.7461z"/>
  <path d="m280.24 232.89v-7.36h-39.977l-0.183 14.721 40.16-5.4e-4z"/>
  <path d="m232.56 222.97v-17.28h-14.72v34.56h14.72z"/>
  <path d="m208.88 233.21v-7.36l-2.32-0.0419c-1.276-0.023-6.9516-0.059-12.613-0.08-5.6609-0.021-10.413-0.15812-10.56-0.30476-0.14711-0.14663-0.30848-35.031-0.3586-77.52l-0.0911-77.253h-14.69l-0.0841 72.72c-0.0833 72.052-3e-3 81.252 0.74307 85.544 0.93965 5.4031 3.2505 8.3764 7.8466 10.096 3.3914 1.2689 6.283 1.4947 19.566 1.5282l12.56 0.0317z"/>
  <path d="m72.753 281.67c2.2493-0.44755 4.2409-0.9317 4.4258-1.0759s0.76824-0.36131 1.2962-0.48252c1.7726-0.40693 8.0078-3.7106 10.415-5.5184 10.145-7.6186 16.038-18.321 16.95-30.785 0.16278-2.2242 0.30017-4.152 0.3053-4.284 5e-3 -0.132-3.425-0.24-7.6224-0.24h-7.6318l-0.19714 3.28c-0.40313 6.7072-3.2035 12.836-7.9511 17.403-8.667 8.3364-22.117 9.646-32.268 3.1418-4.2987-2.7544-7.2542-6.1008-9.5642-10.829-1.6479-3.373-2.2197-5.794-2.4838-10.516l-0.21032-3.76h-15.36l0.21282 3.92c0.89154 16.421 9.5041 29.679 23.768 36.585 1.6069 0.77811 3.078 1.4147 3.2691 1.4147 0.19111 0 0.82036 0.22105 1.3983 0.49122s2.7069 0.83344 4.7309 1.2517c5.3076 1.0968 11.016 1.098 16.518 3e-3z"/>
  <path d="m78.955 299.13v-7.36l-14.88-5.4e-4 0.18296 14.721h14.697z"/>
  <path d="m58.475 299.13v-7.36h-15.04v14.72h15.04z"/>
 </g>
 <path d="m139.89 343.7s-5e-3 -29.49 2.3642-43.764c3.0374-18.3 19.453-39.283 15.528-52.475s-12.717 8.2388-21.061-16.778 28.12-87.442 33.02-127.08c4.8998-39.639-0.89243-108.34-0.89243-108.34" fill="none" stroke="#000" stroke-width="3.9688"/>
 <style>#path1086, #path1084, #path1080, #path1078, #path1076, #path1074, #path1072, #path1070, #path1068 {  }</style>
</svg>
